<?xml version="1.0" encoding="utf-8"?>
<svg viewBox="-1665.201 -1802.6862 3786.4783 4018.8652" xmlns="http://www.w3.org/2000/svg">
  <path opacity="1.000000" stroke="none" d=" M2882.583496,669.418579 C2927.394043,719.991150 2959.445068,776.406799 2980.020752,839.104919 C2992.682129,877.686584 3000.900879,917.354187 3005.322510,957.874451 C3008.005371,982.459167 3008.332031,1006.992065 3008.332764,1031.604980 C3008.345703,1446.224243 3008.297119,1860.843384 3008.379639,2275.462646 C3008.396240,2359.295898 2991.004639,2439.307373 2955.074463,2514.927490 C2934.992188,2557.193604 2908.333008,2595.275391 2876.506592,2629.877441 C2844.253418,2664.943848 2807.947021,2694.777588 2767.381836,2719.504150 C2719.233398,2748.853027 2667.303223,2768.530029 2612.223145,2780.589600 C2580.942139,2787.438721 2549.468018,2791.129150 2517.582764,2793.673828 C2492.938965,2795.640381 2468.376953,2796.100830 2443.831299,2795.464111 C2357.781982,2793.232910 2274.635010,2777.184082 2197.591309,2737.349609 C2088.117676,2680.748291 2009.138916,2595.783936 1963.052979,2480.861572 C1944.349121,2434.220215 1933.542603,2385.819824 1927.471802,2336.061523 C1923.834351,2306.248535 1923.061646,2276.319824 1923.034424,2246.479980 C1922.669067,1845.859497 1922.755737,1445.238403 1922.827393,1044.617554 C1922.837891,985.879822 1928.149292,927.690308 1943.311279,870.727966 C1963.135010,796.251953 1997.166870,729.259460 2048.466797,671.311646 C2114.203857,597.055542 2194.256348,545.925354 2290.118164,519.475586 C2326.809082,509.351959 2364.041992,503.538116 2401.784668,499.437134 C2438.351807,495.463898 2474.968262,495.124054 2511.434814,497.566345 C2558.547852,500.721649 2605.188965,507.973267 2650.670410,521.519348 C2723.248779,543.135986 2787.779541,579.098938 2843.915283,629.847229 C2857.222412,641.877319 2869.119385,655.467346 2882.583496,669.418579 M2670.799316,1566.000732 C2670.799316,1404.034424 2670.879639,1242.068115 2670.713379,1080.102051 C2670.688232,1055.526123 2670.808838,1030.995239 2668.825195,1006.354980 C2666.491943,977.372925 2659.897949,949.920471 2648.441406,923.522217 C2634.836426,892.173096 2613.413330,867.051270 2584.818604,848.433411 C2558.738281,831.452637 2529.900635,822.494324 2498.914307,818.601990 C2466.074219,814.476868 2433.771484,816.048706 2402.115234,824.545715 C2351.481445,838.136658 2313.033936,867.652832 2288.517822,914.818054 C2269.927490,950.582336 2262.966553,988.917236 2262.943115,1028.485474 C2262.699951,1440.400513 2262.778076,1852.315552 2262.827393,2264.230713 C2262.830811,2293.012695 2266.898926,2321.326416 2276.040283,2348.617188 C2292.709473,2398.380615 2323.820312,2436.362305 2372.374023,2457.366211 C2428.373779,2481.591064 2486.372803,2482.568848 2543.953125,2463.647217 C2597.858643,2445.932861 2633.786133,2408.724365 2653.846191,2355.571289 C2666.268311,2322.656738 2670.554932,2288.469482 2670.610352,2253.859863 C2670.975586,2025.907349 2670.799316,1797.953979 2670.799316,1566.000732 z" transform="matrix(1, 0, 0, 1, -2272.681640625, -2298.710205078125)"/>
  <path opacity="1.000000" stroke="none" d=" M1535.116699,684.902710 C1595.189575,749.329651 1632.370605,824.229370 1651.597290,908.242859 C1662.153198,954.369019 1667.981323,1001.117188 1667.794189,1048.625488 C1667.408325,1146.617920 1667.930298,1244.613892 1667.589600,1342.606689 C1667.361328,1408.275635 1656.681396,1472.373047 1635.232910,1534.473022 C1610.685303,1605.545898 1571.104980,1667.092529 1517.105225,1719.550903 C1449.729126,1785.003662 1369.034912,1824.439453 1277.799438,1843.668701 C1231.434082,1853.441040 1184.521362,1857.498779 1137.148560,1857.259155 C1081.153442,1856.975952 1025.155762,1857.174683 969.159119,1857.217041 C962.595825,1857.221924 956.032776,1857.559692 948.415405,1857.772705 C947.807312,1862.387085 947.054504,1866.133179 946.878784,1869.906128 C946.630981,1875.227661 946.807434,1880.569214 946.807434,1885.902222 C946.806946,2169.885010 946.807068,2453.867676 946.807068,2737.850342 C946.807068,2745.754395 946.807007,2753.658203 946.807007,2762.723633 C942.499451,2763.379150 939.420532,2764.255615 936.341125,2764.257324 C829.681152,2764.317383 723.021057,2764.299316 616.361023,2764.251465 C614.420898,2764.250732 612.481018,2763.756592 609.370605,2763.333496 C608.817932,2759.763916 607.967590,2756.049316 607.731628,2752.296143 C607.439392,2747.648193 607.654175,2742.967773 607.654175,2738.301514 C607.653748,2010.345825 607.649780,1282.390137 607.707458,554.434387 C607.708069,546.630981 606.581604,538.644531 609.344116,530.019287 C614.987244,529.733093 620.180908,529.240417 625.374756,529.239258 C806.697083,529.200623 988.019958,528.963867 1169.341064,529.427307 C1203.254150,529.514038 1237.017944,533.538696 1270.344482,540.524658 C1312.797607,549.423645 1354.051147,561.854675 1393.367676,580.426208 C1435.845825,600.491211 1474.318237,626.425903 1508.600342,658.522278 C1517.354126,666.717773 1525.636108,675.417114 1535.116699,684.902710 M1224.895020,868.636353 C1190.295654,853.007690 1153.481812,848.267822 1116.099609,847.816956 C1064.819092,847.198425 1013.525452,847.648804 962.237427,847.692566 C957.750427,847.696411 953.263611,848.081238 947.399170,848.352905 C947.181763,857.366821 946.829163,865.193481 946.828064,873.020203 C946.798157,1085.499146 946.804077,1297.978149 946.804810,1510.457153 C946.804810,1515.119629 946.610535,1519.794189 946.882812,1524.440918 C947.100464,1528.156128 947.890625,1531.837646 948.543335,1536.338501 C956.350525,1536.338501 962.936035,1536.338501 969.521545,1536.338501 C1023.473877,1536.338501 1077.426514,1536.438232 1131.378418,1536.298218 C1160.184814,1536.223511 1188.143188,1532.027466 1215.180054,1521.056152 C1266.562622,1500.205566 1300.192383,1463.579346 1317.014160,1410.946655 C1325.807739,1383.432983 1329.130249,1355.201538 1329.162598,1326.503174 C1329.256470,1243.243530 1329.113770,1159.983398 1329.248413,1076.723877 C1329.286133,1053.426147 1328.453369,1030.281494 1324.844360,1007.174744 C1321.323120,984.629883 1314.671753,963.323547 1304.009766,943.216309 C1286.605835,910.394226 1261.135254,885.992371 1224.895020,868.636353 z" transform="matrix(1, 0, 0, 1, -2272.681640625, -2298.710205078125)"/>
  <path opacity="1.000000" stroke="none" d="M 1060.915 -1238.711 C 1060.915 -1415.927 1060.915 -1591.144 1060.915 -1767.281 C 1065.737 -1768.151 1069.442 -1769.141 1073.2 -1769.417 C 1077.841 -1769.757 1082.525 -1769.506 1087.191 -1769.506 C 1263.155 -1769.507 1439.118 -1769.651 1615.081 -1769.39 C 1652.383 -1769.335 1689.353 -1765.249 1725.967 -1757.532 C 1767.091 -1748.864 1806.89 -1736.702 1845.061 -1718.859 C 1887.043 -1699.234 1925.165 -1673.94 1959.271 -1642.813 C 1989.363 -1615.35 2016.164 -1584.843 2038.261 -1550.426 C 2063.58 -1510.992 2082.754 -1468.787 2096.118 -1423.857 C 2106.759 -1388.079 2113.557 -1351.53 2118.125 -1314.597 C 2120.242 -1297.472 2120.784 -1280.067 2120.823 -1262.786 C 2121.059 -1158.808 2121.796 -1054.82 2120.665 -950.854 C 2119.788 -870.273 2104.245 -792.448 2069.877 -718.902 C 2028.022 -629.334 1964.25 -559.74 1878.939 -510.244 C 1832.044 -483.036 1781.512 -464.924 1728.141 -454.531 C 1684.277 -445.989 1640.152 -441.365 1595.474 -441.479 C 1537.486 -441.628 1479.498 -441.531 1421.51 -441.494 C 1414.958 -441.49 1408.406 -441.189 1400.701 -440.997 C 1400.2 -436.223 1399.598 -432.462 1399.458 -428.684 C 1399.261 -423.359 1399.404 -418.021 1399.404 -412.689 C 1399.403 -128.748 1399.404 155.193 1399.404 439.134 C 1399.404 447.042 1399.403 454.95 1399.403 463.884 C 1395.279 464.573 1392.195 465.537 1389.11 465.54 C 1283.132 465.618 1177.154 465.613 1071.176 465.568 C 1068.578 465.567 1065.979 464.991 1062.512 464.581 C 1061.964 460.566 1061.152 456.765 1060.989 452.936 C 1060.733 446.948 1060.915 440.941 1060.915 434.942 C 1060.915 -122.275 1060.915 -679.493 1060.915 -1238.711 M 1782.517 -973.433 C 1782.517 -1062.694 1782.573 -1151.955 1782.483 -1241.216 C 1782.457 -1267.905 1779.642 -1294.32 1771.803 -1319.922 C 1754.291 -1377.111 1718.091 -1416.731 1661.168 -1436.76 C 1632.601 -1446.812 1602.884 -1450.341 1572.995 -1450.809 C 1519.052 -1451.655 1465.086 -1451.09 1411.13 -1450.941 C 1407.438 -1450.931 1403.751 -1449.483 1399.395 -1448.564 C 1399.395 -1440.317 1399.395 -1433.022 1399.395 -1425.726 C 1399.395 -1230.551 1399.395 -1035.375 1399.395 -840.199 C 1399.395 -818.217 1399.321 -796.234 1399.481 -774.253 C 1399.508 -770.527 1400.556 -766.808 1401.244 -762.367 C 1408.901 -762.367 1415.507 -762.367 1422.113 -762.367 C 1475.404 -762.367 1528.695 -762.521 1581.984 -762.281 C 1600.05 -762.2 1617.967 -763.482 1635.513 -767.459 C 1702.314 -782.599 1748.479 -821.317 1770.307 -887.163 C 1779.171 -913.904 1782.136 -941.591 1782.517 -973.433 Z" style="transform-origin: 1591.06px -651.997px;"/>
  <path opacity="1.000000" stroke="none" d=" M1189.179688,3527.999023 C1189.308716,3330.018799 1189.434814,3134.038330 1189.633057,2938.058105 C1189.634277,2936.886230 1190.640991,2935.715332 1191.758179,2933.279053 C1216.876221,2931.189697 1242.712769,2932.648926 1268.490845,2932.383789 C1294.486572,2932.116455 1320.487183,2932.324951 1346.485718,2932.324951 C1372.389282,2932.324951 1398.292847,2932.324951 1425.014526,2932.324951 C1425.734741,2937.406738 1426.524292,2941.192871 1426.748047,2945.011963 C1427.020630,2949.662598 1426.819824,2954.341064 1426.819824,2959.007324 C1426.820190,3468.978027 1426.824707,3978.948730 1426.779053,4488.919434 C1426.778320,4496.767090 1427.658081,4504.744141 1426.019653,4511.148926 C1424.331177,4512.844238 1423.928101,4513.432617 1423.371338,4513.756348 C1422.820557,4514.075684 1422.116211,4514.276855 1421.479126,4514.278320 C1342.831665,4514.469238 1264.183960,4514.646484 1185.536377,4514.777832 C1181.581787,4514.784668 1177.626587,4514.395996 1172.248779,4514.118164 C1136.729736,4403.482422 1102.779541,4292.269043 1067.803711,4181.385254 C1032.608643,4069.806885 998.075195,3958.020020 963.206604,3846.338379 C928.667725,3735.712402 894.242371,3625.050049 855.652344,3515.268066 C855.652344,3847.572754 855.652344,4179.877441 855.652344,4512.933105 C851.267212,4513.693848 848.123840,4514.710938 844.979187,4514.714844 C773.650085,4514.805176 702.320984,4514.792969 630.991821,4514.749512 C628.404236,4514.748047 625.816895,4514.231934 621.934753,4513.817871 C621.377625,4509.902344 620.598022,4506.199219 620.383057,4502.462891 C620.115417,4497.811523 620.311584,4493.133789 620.311584,4488.467285 C620.311279,3978.496582 620.311279,3468.525879 620.311279,2958.555176 C620.311279,2950.663818 620.311279,2942.772461 620.311279,2936.420166 C622.273743,2934.452881 622.686707,2933.893311 623.231873,2933.534180 C623.753113,2933.190674 624.404114,2932.879883 625.010071,2932.855225 C630.329102,2932.640381 635.650757,2932.348877 640.971802,2932.346680 C722.252930,2932.315674 803.533997,2932.325195 886.061829,2932.325195 C920.117371,3048.085693 952.588440,3163.667725 985.919250,3278.995850 C1019.321777,3394.571777 1052.038086,3510.345947 1085.263062,3625.973389 C1118.441895,3741.440674 1151.878662,3856.833984 1185.137085,3972.033447 C1186.853271,3971.881836 1187.579834,3972.028564 1187.833008,3971.747559 C1188.250000,3971.285889 1188.569702,3970.547363 1188.570679,3969.925049 C1188.794067,3823.283203 1188.986450,3676.641113 1189.179688,3527.999023 z" transform="matrix(1, 0, 0, 1, -2272.681640625, -2298.710205078125)"/>
  <path opacity="1.000000" stroke="none" d=" M3259.073730,4172.751953 C3291.407959,4286.734375 3323.310791,4399.166992 3354.979736,4510.775391 C3353.881592,4512.402344 3353.619141,4513.053711 3353.140869,4513.428711 C3352.637207,4513.822266 3351.927490,4514.166016 3351.307373,4514.167480 C3272.674561,4514.391602 3194.041748,4514.589355 3115.408936,4514.735840 C3112.833984,4514.740723 3110.258301,4514.208984 3106.426758,4513.789551 C3086.128418,4441.400879 3067.597656,4368.733887 3048.035156,4296.353516 C3028.439209,4223.849121 3008.944824,4151.315430 2989.864990,4078.674316 C2970.802979,4006.099854 2951.407715,3933.622559 2932.025879,3861.708252 C2908.098145,3859.338135 2825.561035,3859.876221 2809.914795,3862.549805 C2809.432617,3865.932861 2808.614990,3869.692627 2808.423584,3873.484131 C2808.154785,3878.803467 2808.349609,3884.145996 2808.349609,3889.478760 C2808.349121,4090.119873 2808.359375,4290.760742 2808.306885,4491.401855 C2808.305176,4498.566895 2809.269531,4505.885742 2807.122803,4512.650879 C2791.402588,4515.321289 2591.750000,4515.751953 2569.687744,4513.126465 C2569.263916,4509.750977 2568.573486,4506.030273 2568.382568,4502.284180 C2568.145264,4497.630371 2568.319092,4492.955078 2568.319092,4488.289062 C2568.318604,3978.354248 2568.316650,3468.419678 2568.335693,2958.484863 C2568.335938,2950.597412 2568.592773,2942.709961 2568.749512,2933.695068 C2573.492676,2933.172607 2577.272705,2932.394531 2581.052979,2932.392822 C2710.369629,2932.328857 2839.698730,2931.261475 2968.998535,2932.738770 C3047.344238,2933.633545 3119.999512,2955.948242 3183.086426,3003.951172 C3243.957520,3050.268311 3283.850342,3111.130615 3303.904297,3184.886719 C3311.601318,3213.195801 3315.804932,3241.983154 3317.784180,3271.402588 C3319.261719,3293.366455 3319.443115,3315.241211 3319.598633,3337.157471 C3319.887451,3377.816895 3319.233398,3418.486572 3319.835693,3459.139160 C3320.250732,3487.140381 3319.292969,3515.094238 3316.074951,3542.799072 C3306.426514,3625.859131 3275.650879,3699.522217 3216.097656,3759.720459 C3198.281494,3777.729492 3177.948975,3792.631104 3155.663818,3807.321045 C3157.835205,3815.912598 3159.859375,3824.826904 3162.343994,3833.611084 C3183.339600,3907.841797 3204.362305,3982.064697 3225.495850,4056.256104 C3236.420166,4094.606689 3247.585449,4132.888672 3259.073730,4172.751953 M3010.672852,3617.274658 C3038.690674,3603.097168 3057.485840,3580.915283 3068.549805,3551.656006 C3076.188721,3531.455322 3079.573486,3510.600586 3079.615967,3489.168945 C3079.737305,3427.877441 3079.668213,3366.585693 3079.649170,3305.293945 C3079.642578,3283.845215 3076.218018,3263.035645 3068.936279,3242.760742 C3057.564941,3211.099365 3036.848633,3187.718018 3006.673340,3173.443359 C2986.090820,3163.706299 2963.832031,3159.051758 2940.989746,3158.871826 C2901.019287,3158.557617 2861.044922,3158.758545 2821.072021,3158.843506 C2817.303467,3158.851562 2813.536133,3159.572021 2808.811035,3160.060791 C2808.619629,3164.479736 2808.358887,3167.689941 2808.358643,3170.900146 C2808.338379,3320.798340 2808.329346,3470.696533 2808.402588,3620.594727 C2808.404297,3624.393799 2809.335205,3628.192383 2809.993164,3633.217773 C2816.727295,3633.217773 2822.644287,3633.218018 2828.561523,3633.218018 C2866.535645,3633.218018 2904.512939,3632.934082 2942.483154,3633.322998 C2965.585693,3633.559570 2987.351807,3628.790527 3010.672852,3617.274658 z" transform="matrix(1, 0, 0, 1, -2272.681640625, -2298.710205078125)"/>
  <path opacity="1.000000" stroke="none" d=" M3551.651367,3928.000000 C3551.743652,3596.735352 3551.834961,3267.470703 3551.984619,2938.206055 C3551.985352,2937.009766 3552.832520,2935.814209 3553.768311,2933.337891 C3556.974609,2933.041748 3560.779053,2932.384766 3564.584229,2932.383057 C3693.226562,2932.328613 3821.879150,2931.346436 3950.507080,2932.705322 C4028.101074,2933.525146 4100.303223,2954.951416 4163.214355,3001.954590 C4228.015137,3050.369385 4269.588379,3114.555420 4288.751465,3193.132080 C4295.217285,3219.643066 4299.396973,3246.408447 4300.964844,3273.836426 C4301.952637,3291.099609 4302.743164,3308.332764 4302.748535,3325.587402 C4302.837402,3598.202393 4303.098633,3870.817627 4302.555664,4143.431641 C4302.453125,4194.827637 4294.965332,4245.503906 4276.293945,4293.933594 C4245.282227,4374.374023 4191.704590,4435.064941 4115.067383,4474.328125 C4079.436279,4492.583008 4041.080078,4503.461426 4001.113525,4509.035156 C3967.354736,4513.741699 3933.576660,4514.846680 3899.630615,4514.824219 C3791.651123,4514.752930 3683.671631,4514.809570 3575.692139,4514.773438 C3568.476807,4514.770996 3561.261719,4514.410645 3555.363525,4514.252441 C3553.648193,4512.642090 3553.058594,4512.272949 3552.742432,4511.741211 C3552.413330,4511.187988 3552.191162,4510.477051 3552.190430,4509.835449 C3551.995361,4316.557129 3551.823486,4123.278320 3551.651367,3928.000000 M3791.667725,3882.000000 C3791.794189,4015.898926 3791.920166,4149.797852 3792.071777,4283.696777 C3792.072266,4284.301758 3792.338379,4284.971680 3792.666504,4285.494629 C3793.011719,4286.044434 3793.581299,4286.453613 3794.459229,4287.329590 C3795.888428,4287.592285 3797.774658,4288.237305 3799.661865,4288.240723 C3838.967285,4288.317871 3878.278076,4288.708008 3917.576172,4288.176270 C3936.843262,4287.916016 3956.059082,4285.323242 3974.358154,4278.857910 C4016.994629,4263.793457 4044.800293,4234.742188 4055.766357,4190.460938 C4061.547363,4167.118164 4062.871582,4143.290527 4062.827881,4119.324219 C4062.731689,4066.694824 4062.798096,4014.065430 4062.798096,3961.436035 C4062.798096,3746.920898 4062.877686,3532.405762 4062.686523,3317.890625 C4062.665039,3294.009277 4060.903320,3270.170410 4053.322510,3247.176758 C4040.879150,3209.433350 4016.316650,3183.056396 3979.091309,3169.141846 C3960.321289,3162.125732 3940.639648,3158.792969 3920.505371,3158.786865 C3881.865967,3158.774658 3843.226807,3158.768066 3804.587402,3158.824707 C3800.801025,3158.830322 3797.014893,3159.292969 3794.578369,3159.454102 C3792.906250,3161.491943 3792.113770,3162.006348 3792.113525,3162.520996 C3791.929199,3401.013916 3791.798828,3639.507080 3791.667725,3882.000000 z" transform="matrix(1, 0, 0, 1, -2272.681640625, -2298.710205078125)"/>
  <path opacity="1.000000" stroke="none" d=" M1828.000000,2932.329834 C2007.314331,2932.437744 2184.628662,2932.542236 2361.943115,2932.715820 C2363.111816,2932.717041 2364.279541,2933.667236 2365.447754,2934.175537 C2365.918701,2934.648682 2366.518555,2935.050049 2366.823975,2935.612061 C2367.125244,2936.167236 2367.244385,2936.884277 2367.245850,2937.530762 C2367.403809,3005.516357 2367.543701,3073.502197 2367.682129,3141.487793 C2367.691650,3146.122314 2367.683350,3150.757080 2367.683350,3156.364014 C2363.334229,3157.265625 2359.663086,3158.649170 2355.977783,3158.687744 C2335.314697,3158.904785 2314.648193,3158.801270 2293.982910,3158.801514 C2179.990479,3158.802490 2065.998291,3158.801758 1952.005859,3158.801758 C1944.745972,3158.801758 1937.485962,3158.801758 1929.307251,3158.801758 C1928.682129,3163.562012 1927.753174,3167.344238 1927.751099,3171.126953 C1927.677124,3309.117676 1927.688965,3447.108398 1927.688965,3585.099121 C1927.688965,3588.307129 1927.689087,3591.514893 1927.689087,3596.076660 C1957.397339,3598.300049 1985.841553,3596.900879 2014.228394,3597.142578 C2043.557495,3597.392578 2072.890625,3597.198242 2102.221924,3597.198242 C2130.886719,3597.198242 2159.551270,3597.198242 2188.216064,3597.198242 C2216.794189,3597.198242 2245.372559,3597.198242 2275.130371,3597.198242 C2275.949707,3601.193848 2277.111328,3604.227295 2277.115479,3607.261963 C2277.209717,3676.590332 2277.188232,3745.918945 2277.122559,3815.247314 C2277.120117,3817.735840 2276.445801,3820.224121 2275.906006,3823.942139 C2260.721191,3824.713867 2246.178711,3824.226562 2231.665039,3824.317627 C2217.666504,3824.405518 2203.666992,3824.336914 2189.667969,3824.336914 C2175.002197,3824.336914 2160.336670,3824.336914 2145.670898,3824.336914 C2131.005127,3824.336914 2116.339600,3824.336914 2101.673828,3824.336914 C2087.674805,3824.336914 2073.675781,3824.336914 2059.676758,3824.336914 C2045.011108,3824.336914 2030.345337,3824.336914 2015.679688,3824.336914 C2001.680664,3824.336914 1987.680542,3824.236328 1973.682739,3824.364502 C1959.175659,3824.497314 1944.617065,3823.710205 1931.297485,3824.921387 C1929.671875,3826.758545 1929.129517,3827.198242 1928.824097,3827.765381 C1928.516357,3828.337158 1928.321167,3829.029541 1928.288696,3829.679932 C1928.056519,3834.323486 1927.709595,3838.969971 1927.708618,3843.615479 C1927.678833,3990.883057 1927.684082,4138.150879 1927.684082,4285.390625 C1935.007690,4290.440430 1942.566040,4288.192871 1949.566284,4288.205078 C2050.892578,4288.386719 2152.218994,4288.329102 2253.545654,4288.329102 C2284.876953,4288.329102 2316.208008,4288.296387 2347.539307,4288.358887 C2353.421875,4288.370605 2359.304199,4288.764160 2364.220459,4288.945801 C2365.618164,4290.346680 2366.182617,4290.759277 2366.531982,4291.308594 C2366.867676,4291.835938 2367.162109,4292.503906 2367.163818,4293.111328 C2367.356201,4359.761719 2367.527832,4426.412109 2367.668213,4493.062500 C2367.679443,4498.386719 2367.554932,4503.714844 2367.290771,4509.031250 C2367.231934,4510.220703 2366.320557,4511.367188 2365.402588,4513.430664 C2363.433350,4513.801758 2360.918945,4514.689453 2358.404297,4514.689941 C2135.843994,4514.753418 1913.283813,4514.748535 1689.416992,4514.748535 C1688.732788,4510.047363 1687.938599,4506.363770 1687.720947,4502.645996 C1687.448730,4497.995605 1687.648315,4493.317383 1687.648315,4488.650879 C1687.647949,3978.685303 1687.647827,3468.719482 1687.647827,2958.753906 C1687.647827,2950.830322 1687.647949,2942.906494 1687.647949,2933.945068 C1693.153931,2933.327148 1697.582520,2932.410156 1702.013306,2932.398193 C1743.342041,2932.286621 1784.671021,2932.330811 1828.000000,2932.329834 z" transform="matrix(1, 0, 0, 1, -2272.681640625, -2298.710205078125)"/>
</svg>